<svg xmlns="http://www.w3.org/2000/svg" width="64" height="64" viewBox="0 0 64 64">
  <title>Intersection</title>
  <rect width="64" height="64" rx="14" fill="#F9F7F4"/>
  <!-- Three open paths: strategy, technology, and creativity. -->
  <g fill="none" stroke="#101419" stroke-width="4.4" stroke-linecap="round" stroke-linejoin="round" transform="rotate(20 32 32)">
    <path d="M36 11.5C46 13.5 53 22 53 32C53 41 44 46 36 41L29 37"/>
    <path d="M36 11.5C46 13.5 53 22 53 32C53 41 44 46 36 41L29 37" transform="rotate(120 32 32)"/>
    <path d="M36 11.5C46 13.5 53 22 53 32C53 41 44 46 36 41L29 37" transform="rotate(240 32 32)"/>
  </g>
</svg>
